<?xml version="1.0" encoding="UTF-8"?>
<svg id="Layer_1" data-name="Layer 1" xmlns="http://www.w3.org/2000/svg" viewBox="0 0 486.97 281.25">
  <defs>
    <style>
      .cls-1 {
        stroke-linecap: round;
      }

      .cls-1, .cls-2 {
        fill: none;
        stroke: #f5f4dc;
        stroke-width: 10px;
      }

      .cls-3 {
        fill: #c9452f;
        font-family: Duckie, Duckie;
        font-size: 107px;
      }
    </style>
  </defs>
  <path class="cls-1" d="M452.79,276.21s-278.26.11-348.6,0c-70.08-.11-124.74-12.45-86.73-126.48"/>
  <path class="cls-2" d="M18.68,95.61c13.81,0,22.72,4.32,35.38,0,14.75-5.03,9.64-23.76,25.65-25.14,20.29-1.75,11.35,25.09,27.86,34.44,41.03,23.23-17.1-83.12,29.63-98.49,56.41-18.56-18.21,151.61,27.86,120.19,25.97-17.71-2.29-74.12,30.07-64.74,19.03,5.52,10.26,27.19,28.74,33.75,34.6,12.28-5.99-59.17,27.86-72.66,45.56-18.16-11.37,121.59,30.95,99.18,26.56-14.07-3-67.19,27.86-60.27,19.7,4.42,9.14,34.27,29.63,33.75,17.22-.44,12.85-25.65,30.07-25.14,16.64.49,12.69,19.78,27.86,25.14,14.94,5.28,26.02-2.87,42.01,0,11.84,2.13,18.45,4.26,28.74,9.3"/>
  <text class="cls-3" transform="translate(45.59 216.88)"><tspan x="0" y="0">Beat Box</tspan></text>
</svg>